<svg xmlns="http://www.w3.org/2000/svg" viewBox="0 0 191.55 73">
  <defs>
    <style>
      .cls-1 {
        fill: #3A688B;
      }

      .cls-2 {
        fill: #4ACCC2;
      }
    </style>
  </defs>
  <title>Asset 2</title>
  <g id="Layer_2" data-name="Layer 2">
    <g id="Layer_1-2" data-name="Layer 1">
      <g>
        <rect class="cls-1" x="161.43" y="29.67" width="2.7" height="15.89"/>
        <path class="cls-1" d="M186.79,38.62l-.62-.17c-1.31-.35-2.12-.74-2.12-1.57,0-1.11,1.18-1.26,2.21-1.26,1.4,0,2.12.49,2.34,1.58h2.59c-.24-2.34-1.82-3.47-4.83-3.47s-4.9,1.15-4.9,3.15.8,3,5.32,4c1.19.27,2.11.57,2.11,1.69,0,.85-.93,1.38-2.43,1.38s-2.51-.68-2.63-1.78H181c.18,2.25,2.31,3.69,5.45,3.69s5.07-1.34,5.07-3.49c0-2.48-1.1-2.78-4.76-3.77"/>
        <rect class="cls-1" x="165.74" y="34.06" width="2.7" height="11.51"/>
        <path class="cls-1" d="M157.2,44.71a4.63,4.63,0,0,0,.14.85h2.54V38.23c0-3.15-1.46-4.49-4.88-4.49-3.23,0-4.87,1.23-5,3.74h2.5a2.09,2.09,0,0,1,2.37-1.78c1.39,0,2.26.57,2.26,1.48,0,1.09-.75,1.39-2.22,1.59-3.39.47-5.3.88-5.3,4.05,0,2,1.33,3.05,3.76,3.05a4.65,4.65,0,0,0,3.46-1.31l.37-.41,0,.55M154,44.09c-1.46,0-1.77-.85-1.77-1.57,0-1.18.7-1.75,2.58-2.11,1.18-.22,1.66-.38,1.92-.64l.41-.41,0,1.9A3,3,0,0,1,154,44.09"/>
        <path class="cls-1" d="M177.57,41.7a2.41,2.41,0,0,1-2.54,2c-1.19,0-2.57-1.07-2.57-4.11s1.45-3.69,2.67-3.69a2.42,2.42,0,0,1,2.46,2h2.73c-.29-2.55-2.27-4.13-5.17-4.13-3.51,0-5.36,2-5.36,5.93s1.92,6.22,5.27,6.22a5.13,5.13,0,0,0,5.23-4.18h-2.71"/>
        <rect class="cls-1" x="165.74" y="29.67" width="2.7" height="2.48"/>
        <path class="cls-1" d="M143.4,35.95c1.7,0,2.28.65,2.28,2.6v7h2.72V37.5a3.47,3.47,0,0,0-3.73-3.76c-1.93,0-3.36.66-4,1.86l-.09,0V34.06H138V45.57h2.7V38.94c0-2,.91-3,2.69-3"/>
        <path class="cls-1" d="M102.68,42.51a2.36,2.36,0,0,1-2.31,1.34c-1.66,0-2.81-1.25-2.91-3.19V40.4h8.26c-.06-4.42-1.87-6.66-5.39-6.66s-5.56,2.19-5.56,5.85c0,4.23,1.88,6.29,5.76,6.29a4.94,4.94,0,0,0,4.93-3.38h-2.77m-5.13-3.88a2.76,2.76,0,0,1,2.67-2.85,2.68,2.68,0,0,1,2.69,2.86v.24H97.53l0-.25"/>
        <path class="cls-1" d="M89.57,29.87h-6.9v15.7h2.91V39.7h4a4.63,4.63,0,0,0,5-4.83,4.76,4.76,0,0,0-5-5M89,37.42H85.58V32.2H89c1.9,0,3,.94,3,2.57S91,37.42,89,37.42"/>
        <path class="cls-1" d="M119.48,38.62l-.62-.17c-1.31-.35-2.12-.74-2.12-1.57,0-1.11,1.18-1.26,2.21-1.26,1.4,0,2.12.49,2.34,1.58h2.59c-.24-2.34-1.82-3.47-4.83-3.47s-4.9,1.15-4.9,3.15.8,3,5.32,4c1.19.27,2.11.57,2.11,1.69,0,.85-.93,1.38-2.43,1.38s-2.5-.68-2.63-1.78h-2.79c.18,2.25,2.31,3.69,5.45,3.69s5.07-1.34,5.07-3.49c0-2.48-1.1-2.78-4.76-3.77"/>
        <path class="cls-1" d="M112.67,36.43a5.54,5.54,0,0,1,.64,0V33.74h-.18a3.41,3.41,0,0,0-3.36,1.65l-.43.66v-2h-2.5V45.57h2.7v-6c0-2.08,1.05-3.13,3.13-3.13"/>
        <path class="cls-1" d="M130.9,33.74c-3.6,0-5.93,2.38-5.93,6.07s2.33,6.07,5.93,6.07,5.85-2.38,5.85-6.07-2.24-6.07-5.85-6.07m0,10c-2.08,0-3.13-1.31-3.13-3.89s1.05-3.86,3.13-3.86,3.13,1.3,3.13,3.86S133,43.7,130.9,43.7"/>
        <rect class="cls-2" width="72" height="73"/>
        <path class="cls-1" d="M34.7,18.82l-1.64.12,1.38.89-.39,1.59,1.27-1,1.4.86-.59-1.53,1.25-1.06-1.64.09-.62-1.52-.43,1.59m12.77-3.22L46,15l.83,1.42-1.06,1.25,1.6-.35.86,1.39.16-1.63,1.59-.39L48.44,16l.12-1.64-1.09,1.23m-19.9.21-1.59.4,1.51.65-.11,1.64,1.08-1.23,1.52.61-.84-1.41,1.05-1.26-1.6.36-.87-1.39-.15,1.63m14.5,3.31L41,18.94l.76.8-.5,1,1-.47L43,21l-.14-1.09,1-.49-1.08-.2-.17-1.09-.52,1m-5.5-7.55-.82,0,.67.47-.23.78.65-.49.68.46L37.26,12l.65-.5h-.82l-.28-.77-.24.78m-11.4,9.66-.63.52.82,0,.3.76.22-.79.82-.05L26,21.19l.2-.79-.64.51-.69-.44.28.76m24,3.67-.71-.41.31.75-.61.54.81-.06.33.75.19-.79.81-.08-.7-.43.17-.8-.62.53M37.05,27.58l-.69-2.34h.44a26.53,26.53,0,0,1,5.11.47L46.62,19h0l-3.95,9.31a22.33,22.33,0,0,0-5.61-.71m2.59,22.28,1.91,0c3.23.06,6.58-2.4,7.12-5.22l.1-.54.48-.27c1.55-.86,2.56-2.17,2.49-5.71a10.13,10.13,0,0,0-4.21-7.57,6.5,6.5,0,0,1-4.39,4,6,6,0,0,1-1.83.22C43.83,34,46,32.47,46.17,29.7a14.18,14.18,0,0,0-2-.92l.59-2.3c7,2.51,9.24,8.23,9.32,11.64.08,3.7-.92,6-3.23,7.54a9.6,9.6,0,0,1-7.53,6.42l1.13,1.17-3.85,2L40,54.88A19.63,19.63,0,0,1,33.77,49a7.85,7.85,0,0,1-2,.27,8.42,8.42,0,0,1-2.59-.42A6.73,6.73,0,0,1,25,45.37c-3.61-1.06-6.51-5.15-6.44-9.29,0-2.4,1.18-8,10.53-10l-.28-7.14L31,28.08a17.09,17.09,0,0,0-6.8,2.45l.27,0C26.36,31,27.56,33,27,35.67a7.05,7.05,0,0,1-.56,1.64c.48-2.63-.55-5-2.37-5.42a2.56,2.56,0,0,0-1.56.18,6.25,6.25,0,0,0-1.54,4c-.05,3.25,2.37,6.57,5.17,7.1l.34.06a6.75,6.75,0,0,1,3.26-3.51,6.26,6.26,0,0,1,1.68-.57c-2.47,1.33-4.15,4-3.47,6.07a2.74,2.74,0,0,0,.11.28,4.71,4.71,0,0,0,1.8,1,6.13,6.13,0,0,0,1.87.3,5,5,0,0,0,2-.39l.47-.25a6,6,0,0,1,4-4.58,5.21,5.21,0,0,1,2.33-.29,5.85,5.85,0,0,0-.78.22,6.33,6.33,0,0,0-4,5.72c0,.19,0,.37.07.54a17.47,17.47,0,0,0,4.84,4.68l.82-.41a14.7,14.7,0,0,1-1.87-2.25M33.19,27.79,32.1,25.55c.89-.11,1.77-.2,2.62-.25L35.43,22l.35,5.56q-1.26,0-2.59.19m1.54,3.38a7,7,0,0,0-3.37-1.08,4.25,4.25,0,0,0-2.33.74,2.16,2.16,0,0,1,2.2-1.35,4.33,4.33,0,0,1,2,.52,6.64,6.64,0,0,1,1.5,1.17m9.16-.71a7.06,7.06,0,0,0-3.39,1A4.24,4.24,0,0,0,39,33.39,2.16,2.16,0,0,1,40.05,31a4.33,4.33,0,0,1,1.94-.7,6.67,6.67,0,0,1,1.9.12m3.61,5.18A7,7,0,0,0,46,38.85a4.24,4.24,0,0,0,.46,2.4,2.16,2.16,0,0,1-1.08-2.34A4.35,4.35,0,0,1,46.17,37a6.67,6.67,0,0,1,1.33-1.36m-9.44.12A7.06,7.06,0,0,0,40.81,38a4.24,4.24,0,0,0,2.44.15,2.16,2.16,0,0,1-2.54.46A4.32,4.32,0,0,1,39,37.38a6.65,6.65,0,0,1-1-1.63m8.2,8.8a7,7,0,0,0-2.9-2,4.25,4.25,0,0,0-2.45,0,2.16,2.16,0,0,1,2.5-.64A4.32,4.32,0,0,1,45.17,43a6.68,6.68,0,0,1,1.09,1.55M38.13,45a7.06,7.06,0,0,0,2.74,2.23,4.24,4.24,0,0,0,2.44.16,2.16,2.16,0,0,1-2.54.45,4.31,4.31,0,0,1-1.67-1.21,6.68,6.68,0,0,1-1-1.63M48,39.75a8.11,8.11,0,0,0,1.18-3.81,4.9,4.9,0,0,0-.82-2.64,2.46,2.46,0,0,1,1.49,2.49,5,5,0,0,1-.57,2.26A7.54,7.54,0,0,1,48,39.75M34.41,42a8.16,8.16,0,0,0,1.18-3.81,4.9,4.9,0,0,0-.82-2.64A2.45,2.45,0,0,1,36.26,38a5,5,0,0,1-.57,2.26A7.55,7.55,0,0,1,34.41,42M30,34.27a10.88,10.88,0,0,0,4.79-1.93,6.54,6.54,0,0,0,2-2.94,3.2,3.2,0,0,1-1.36,3.47,6.67,6.67,0,0,1-2.74,1.28,9.77,9.77,0,0,1-2.73.12m-7.4,1.6a7,7,0,0,0,1.8,3,4.24,4.24,0,0,0,2.23,1,2.16,2.16,0,0,1-2.54-.46,4.3,4.3,0,0,1-1.15-1.72,6.67,6.67,0,0,1-.35-1.87m8.41,8a7,7,0,0,0,1.55-3.17,4.24,4.24,0,0,0-.39-2.41,2.16,2.16,0,0,1,1,2.37,4.33,4.33,0,0,1-.81,1.9A6.67,6.67,0,0,1,31,43.89"/>
      </g>
    </g>
  </g>
</svg>
